<svg width="61" height="73" xmlns="http://www.w3.org/2000/svg" xmlns:xlink="http://www.w3.org/1999/xlink" xml:space="preserve" overflow="hidden"><defs><clipPath id="clip0"><rect x="621" y="458" width="38" height="13"/></clipPath></defs><g transform="translate(-612 -409)"><g clip-path="url(#clip0)"><path d="M657.665 464.361C657.665 464.767 657.547 465.169 657.312 465.568 657.072 465.967 656.722 466.352 656.258 466.726 655.793 467.101 655.221 467.458 654.545 467.794 653.868 468.131 653.102 468.443 652.242 468.731 651.382 469.018 650.446 469.275 649.437 469.5 648.424 469.726 647.356 469.917 646.233 470.069 645.109 470.225 643.951 470.343 642.758 470.423 641.565 470.503 640.362 470.541 639.145 470.541 637.928 470.541 636.725 470.503 635.532 470.423 634.339 470.343 633.181 470.225 632.057 470.069 630.934 469.917 629.866 469.726 628.857 469.5 627.844 469.275 626.908 469.018 626.048 468.731 625.188 468.443 624.422 468.131 623.745 467.794 623.069 467.458 622.501 467.101 622.032 466.726 621.568 466.352 621.218 465.967 620.982 465.568 620.743 465.169 620.625 464.767 620.625 464.361 620.625 463.956 620.743 463.553 620.982 463.158 621.218 462.759 621.568 462.375 622.032 461.997 622.501 461.622 623.069 461.268 623.745 460.929 624.422 460.592 625.188 460.28 626.048 459.992 626.908 459.708 627.844 459.451 628.857 459.226 629.866 459.001 630.934 458.81 632.057 458.654 633.181 458.498 634.339 458.383 635.532 458.304 636.725 458.224 637.928 458.186 639.145 458.186 640.362 458.186 641.565 458.224 642.758 458.304 643.951 458.383 645.109 458.498 646.233 458.654 647.356 458.81 648.424 459.001 649.437 459.226 650.446 459.451 651.382 459.708 652.242 459.992 653.102 460.28 653.868 460.592 654.545 460.929 655.221 461.268 655.793 461.622 656.258 461.997 656.722 462.375 657.072 462.759 657.312 463.158 657.547 463.553 657.665 463.956 657.665 464.361Z" fill="#FFFFFF" transform="matrix(1 0 0 1.00509 0.939019 -1.74695)"/></g><path d="M651.174 421.676C644.53 415.032 633.76 415.032 627.116 421.676 621.381 427.414 620.493 436.399 624.994 443.15L639.145 464.375 653.3 443.15C657.801 436.399 656.909 427.414 651.174 421.676ZM639.145 442.231C644.003 442.231 647.939 438.296 647.939 433.438 647.939 428.583 644.003 424.644 639.145 424.644 634.29 424.644 630.355 428.583 630.355 433.438 630.355 438.296 634.29 442.231 639.145 442.231Z" fill="#FDCB54" fill-rule="evenodd" transform="matrix(1 0 0 1.00509 0.939019 -1.74695)"/></g></svg>